<svg xmlns="http://www.w3.org/2000/svg" viewBox="0 0 512 512">
  <defs>
    <linearGradient id="bg" x1="0" y1="0" x2="1" y2="1">
      <stop offset="0" stop-color="#c96b5e"/>
      <stop offset="1" stop-color="#5b3f6a"/>
    </linearGradient>
  </defs>

  <rect width="512" height="512" rx="120" fill="url(#bg)"/>

  <g opacity=".22" fill="none" stroke="#ffffff" stroke-width="24" stroke-linecap="round">
    <path d="M120 256c0-58 28-109 72-142"/>
    <path d="M392 256c0-58-28-109-72-142"/>
    <path d="M120 256c0 58 28 109 72 142"/>
    <path d="M392 256c0 58-28 109-72 142"/>
  </g>

  <g fill="none" stroke="#ffffff" stroke-width="32" stroke-linecap="round" stroke-linejoin="round">
    <rect x="196" y="106" width="120" height="220" rx="60"/>
    <path d="M160 250v28c0 53 43 96 96 96s96-43 96-96v-28"/>
    <path d="M256 374v46"/>
    <path d="M208 420h96"/>
  </g>
</svg>
